<?xml version="1.0" encoding="utf-8"?>
<!-- Svg Vector Icons : http://www.onlinewebfonts.com/icon -->
<!DOCTYPE svg PUBLIC "-//W3C//DTD SVG 1.1//EN" "http://www.w3.org/Graphics/SVG/1.1/DTD/svg11.dtd">
<svg version="1.1" xmlns="http://www.w3.org/2000/svg" xmlns:xlink="http://www.w3.org/1999/xlink" x="0px" y="0px" viewBox="0 0 1000 1000" enable-background="new 0 0 1000 1000" xml:space="preserve">
<metadata> Svg Vector Icons : http://www.onlinewebfonts.com/icon </metadata>
<g><path d="M83.1,435.1L485.3,33l0,0l0,0l3.2-3.2l0.1,0.1c30.8-27.5,78-26.5,107.6,3.1c29.5,29.5,30.6,76.8,3.1,107.6l0.1,0.1l-3.2,3.2l0,0l0,0L318.6,421.4h558.5v0.1c41.2,2.3,74,36.5,74,78.3c0,41.8-32.7,76-74,78.3v0.1H317.8L595.5,856l0,0l0,0l3.2,3.2l-0.1,0.1c27.5,30.8,26.5,78.1-3.1,107.7c-29.6,29.6-76.9,30.6-107.7,3.1l-0.1,0.1l-3.2-3.2l0,0l0,0L79.4,561.8c-18.5-14.4-30.4-36.8-30.4-62C49,472.9,62.5,449.2,83.1,435.1L83.1,435.1z"/></g>
</svg>